<?xml version="1.0" encoding="utf-8"?>
<!-- Generator: Adobe Illustrator 21.0.1, SVG Export Plug-In . SVG Version: 6.00 Build 0)  -->
<svg version="1.1" id="Layer_1" xmlns="http://www.w3.org/2000/svg" xmlns:xlink="http://www.w3.org/1999/xlink" x="0px" y="0px"
	 viewBox="0 0 40 40" style="enable-background:new 0 0 40 40;" xml:space="preserve">
<style type="text/css">
	.st0{fill:#FFFFFF;}
</style>
<g>
	<g>
		<polygon class="st0" points="17.9,12.7 17.9,10 9.9,10 9.9,10 9.8,10 9.8,18 12.6,18 12.6,12.7 		"/>
		<polygon class="st0" points="27.4,18 30.2,18 30.2,10 30.2,10 30.2,9.9 22.2,9.9 22.2,12.7 27.4,12.7 		"/>
		<polygon class="st0" points="22.1,27.3 22.1,30 30.1,30 30.1,30 30.2,30 30.2,22 27.4,22 27.4,27.3 		"/>
		<polygon class="st0" points="12.6,22 9.8,22 9.8,30 9.8,30 9.8,30.1 17.8,30.1 17.8,27.3 12.6,27.3 		"/>
	</g>
	<g>
		<path class="st0" d="M18.6,37.5C9.6,36.8,2.4,29.2,2.4,20S9.6,3.2,18.6,2.5V0.1C8.2,0.8,0,9.4,0,20s8.2,19.2,18.6,19.9V37.5z"/>
		<path class="st0" d="M21.4,0.1v2.4c9.1,0.7,16.2,8.3,16.2,17.5s-7.2,16.8-16.2,17.5v2.4C31.8,39.2,40,30.6,40,20
			S31.8,0.8,21.4,0.1z"/>
	</g>
</g>
</svg>
