<?xml version="1.0" encoding="utf-8"?>
<!-- Generator: Adobe Illustrator 21.0.1, SVG Export Plug-In . SVG Version: 6.00 Build 0)  -->
<svg version="1.1" id="Layer_1" xmlns="http://www.w3.org/2000/svg" xmlns:xlink="http://www.w3.org/1999/xlink" x="0px" y="0px"
	 viewBox="0 0 40 40" style="enable-background:new 0 0 40 40;" xml:space="preserve">
<style type="text/css">
	.st0{fill:#FFFFFF;}
</style>
<g>
	<g>
		<polyline class="st0" points="15.6,26.5 18.4,26.5 18.4,13.5 15.6,13.5 		"/>
		<path class="st0" d="M15.6,13.5"/>
		<path class="st0" d="M15.6,26.5"/>
	</g>
	<g>
		<polyline class="st0" points="21.7,26.5 24.5,26.5 24.5,13.5 21.7,13.5 		"/>
		<path class="st0" d="M21.7,13.5"/>
		<path class="st0" d="M21.7,26.5"/>
	</g>
	<g>
		<path class="st0" d="M18.6,37.5C9.6,36.8,2.4,29.2,2.4,20S9.6,3.2,18.6,2.5V0.1C8.2,0.8,0,9.4,0,20s8.2,19.2,18.6,19.9V37.5z"/>
		<path class="st0" d="M21.4,0.1v2.4c9.1,0.7,16.2,8.3,16.2,17.5s-7.2,16.8-16.2,17.5v2.4C31.8,39.2,40,30.6,40,20
			S31.8,0.8,21.4,0.1z"/>
	</g>
</g>
</svg>
