<?xml version="1.0" encoding="utf-8"?>
<!-- Generator: Adobe Illustrator 21.0.1, SVG Export Plug-In . SVG Version: 6.00 Build 0)  -->
<svg version="1.1" id="Layer_1" xmlns="http://www.w3.org/2000/svg" xmlns:xlink="http://www.w3.org/1999/xlink" x="0px" y="0px"
	 viewBox="0 0 40 40" style="enable-background:new 0 0 40 40;" xml:space="preserve">
<style type="text/css">
	.st0{fill:#FFFFFF;}
</style>
<g>
	<g>
		<polygon class="st0" points="26.4,18.6 26.4,21.4 21.4,21.4 21.4,26.6 18.6,26.6 18.6,21.4 13.4,21.4 13.4,18.6 18.6,18.6 
			18.6,13.4 21.4,13.4 21.4,18.6 		"/>
	</g>
	<g>
		<path class="st0" d="M18.6,37.6C9.6,37,2.4,29.4,2.4,20S9.6,3.2,18.6,2.4V0C8.2,0.8,0,9.4,0,20s8.2,19.2,18.6,20V37.6z"/>
		<path class="st0" d="M21.4,0v2.4c9,0.6,16.2,8.2,16.2,17.6s-7.2,16.8-16.2,17.6V40C31.8,39.2,40,30.6,40,20S31.8,0.8,21.4,0z"/>
	</g>
</g>
</svg>
